<svg width="705" height="685" viewBox="0 0 705 685" fill="none" xmlns="http://www.w3.org/2000/svg">
<path fill-rule="evenodd" clip-rule="evenodd" d="M244.04 218.616C243.573 273.069 216.155 317.355 182.79 317.563C149.423 317.77 122.748 273.808 123.213 219.365C123.676 164.921 151.095 120.629 184.461 120.424C217.825 120.222 244.497 164.184 244.04 218.616Z" fill="#F4C6A8" fill-opacity="0.2"/>
<path fill-rule="evenodd" clip-rule="evenodd" d="M517.054 342.13C476.463 378.43 461.301 428.261 483.175 453.46C505.048 478.658 555.675 469.667 596.264 433.377C636.848 397.084 652.012 347.248 630.139 322.052C608.266 296.86 557.635 305.85 517.054 342.13Z" fill="#F4C6A8" fill-opacity="0.2"/>
<path fill-rule="evenodd" clip-rule="evenodd" d="M402.581 180.782C390.859 234.076 354.959 271.69 322.394 264.804C289.835 257.909 272.943 209.117 284.665 155.829C296.388 102.536 332.289 64.9202 364.85 71.8125C397.413 78.7019 414.306 127.489 402.581 180.782Z" fill="#F4C6A8" fill-opacity="0.2"/>
<path fill-rule="evenodd" clip-rule="evenodd" d="M440.046 197.781C407.767 241.773 403.203 293.57 429.877 313.473C456.548 333.385 504.346 313.86 536.632 269.871C568.921 225.882 573.474 174.084 546.799 154.177C520.125 134.269 472.33 153.789 440.046 197.781Z" fill="#F4C6A8" fill-opacity="0.2"/>
<path fill-rule="evenodd" clip-rule="evenodd" d="M291.95 326.611C278.963 336.071 226.402 363.054 196.73 366.949C167.06 370.844 128.828 378.907 111.778 429.424C94.7209 479.947 133.993 522.64 166.838 535.289C199.681 547.948 262.763 569.247 303.104 594.835C343.443 620.421 399.923 640.413 433.6 599.891C467.277 559.368 452.132 516.99 437.472 490.2C422.81 463.42 408.321 396.598 407.275 368.457C406.226 340.325 367.044 271.945 291.95 326.611Z" fill="#F4C6A8" fill-opacity="0.2"/>
</svg>
