<svg id="Layer_1" data-name="Layer 1" xmlns="http://www.w3.org/2000/svg" viewBox="0 0 340.4 346.6"><defs><style>.cls-1{fill:#d2512c;}.cls-2{fill:#411530;}</style></defs><path class="cls-1" d="M417.07,294.86c-17.59,0-33.08-.27-48.55.12-7.08.19-11.21-1.21-14.52-8.66-8.6-19.35-24.64-28.74-45.77-28.9q-39.06-.3-78.12,0c-19.49.15-28.59,9.19-28.64,28.58q-.19,80.11,0,160.22c0,10.5-2.56,18.93-13.46,22.75-12.22,4.29-23.43-2.13-25.36-14.89-1.83-90.73,1.59-181.7-1.23-272.45-1.21-48.27,44.55-72.88,84.75-48.25,74.7,45.75,151.48,88.1,227.3,132,22.89,13.26,32.18,33.66,26.87,57.43A48,48,0,0,1,476.76,355c-45.77,26.62-91.55,53.21-137.67,79.2-4.73,2.67-13.58,3.75-17.23,1.08s-5.35-11.17-4.78-16.8c1.86-18.48,18.67-33,38.46-34.84C414.93,378.72,418.35,347.79,417.07,294.86Z" transform="translate(-161.41 -123.68)"/><path class="cls-2" d="M238.71,390.34V287.49c28.46-1.45,52.22,22.2,52.22,51.28S267,391.91,238.71,390.34Z" transform="translate(-161.41 -123.68)"/><path class="cls-2" d="M318,311c-5.41-8.95-11.21-14.31-10.8-19.14.35-4.18,7.76-7.76,12-11.6,4,4.51,10.47,8.68,11.16,13.64C331,297.82,324.38,302.73,318,311Z" transform="translate(-161.41 -123.68)"/></svg>