<svg width="637" height="194" viewBox="0 0 637 194" fill="none" xmlns="http://www.w3.org/2000/svg">
<line x1="529.161" y1="149.849" x2="498.187" y2="151.127" stroke="#F5C7A9" stroke-width="5" stroke-linecap="round"/>
<line x1="477.087" y1="150.535" x2="446.089" y2="150.177" stroke="#F5C7A9" stroke-width="5" stroke-linecap="round"/>
<line x1="425.035" y1="147.867" x2="394.147" y2="145.241" stroke="#F5C7A9" stroke-width="5" stroke-linecap="round"/>
<line x1="373.363" y1="140.572" x2="342.908" y2="134.783" stroke="#F5C7A9" stroke-width="5" stroke-linecap="round"/>
<line x1="322.846" y1="127.243" x2="293.398" y2="117.559" stroke="#F5C7A9" stroke-width="5" stroke-linecap="round"/>
<line x1="274.542" y1="107.436" x2="246.528" y2="94.1623" stroke="#F5C7A9" stroke-width="5" stroke-linecap="round"/>
<line x1="228.457" y1="83.1834" x2="201.33" y2="68.1791" stroke="#F5C7A9" stroke-width="5" stroke-linecap="round"/>
<line x1="182.898" y1="58.3678" x2="155.434" y2="43.9893" stroke="#F5C7A9" stroke-width="5" stroke-linecap="round"/>
<line x1="136.098" y1="36.1982" x2="107.622" y2="23.9479" stroke="#F5C7A9" stroke-width="5" stroke-linecap="round"/>
<line x1="86.4389" y1="17.717" x2="56.9346" y2="8.20386" stroke="#F5C7A9" stroke-width="5" stroke-linecap="round"/>
<line x1="36.1197" y1="7.00632" x2="5.40431" y2="2.81505" stroke="#F5C7A9" stroke-width="5" stroke-linecap="round"/>
<g clip-path="url(#clip0_7_10)">
<path d="M586.96 126.425C587.355 129.785 584.951 132.828 581.591 133.223C578.232 133.618 575.188 131.214 574.794 127.854C574.399 124.495 576.803 121.451 580.162 121.057C583.522 120.662 586.565 123.065 586.96 126.425Z" stroke="#F5C7A9" stroke-width="5" stroke-linejoin="round"/>
<path d="M550.761 133.264C548.502 114.033 559.561 98.8082 577.304 96.7239C595.046 94.6396 609.333 106.887 611.592 126.118C613.922 145.948 600.491 165.822 586.951 178.847C570.761 169.315 553.09 153.094 550.761 133.264Z" stroke="#F5C7A9" stroke-width="5" stroke-linejoin="round"/>
</g>
<defs>
<clipPath id="clip0_7_10">
<rect width="98" height="98" fill="white" transform="translate(527.924 96.3577) rotate(-6.70011)"/>
</clipPath>
</defs>
</svg>
