<svg width="902" height="626" viewBox="0 0 902 626" fill="none" xmlns="http://www.w3.org/2000/svg">
<line x1="906.629" y1="2.83379" x2="875.698" y2="4.90351" stroke="#F5C7A9" stroke-width="5" stroke-linecap="round"/>
<line x1="847.183" y1="8.85989" x2="816.951" y2="15.7173" stroke="#F5C7A9" stroke-width="5" stroke-linecap="round"/>
<line x1="789.955" y1="25.0085" x2="762.401" y2="39.2126" stroke="#F5C7A9" stroke-width="5" stroke-linecap="round"/>
<line x1="740.078" y1="56.717" x2="721.194" y2="81.3014" stroke="#F5C7A9" stroke-width="5" stroke-linecap="round"/>
<line x1="710.882" y1="107.015" x2="706.476" y2="137.7" stroke="#F5C7A9" stroke-width="5" stroke-linecap="round"/>
<line x1="709.725" y1="166.991" x2="720.824" y2="195.936" stroke="#F5C7A9" stroke-width="5" stroke-linecap="round"/>
<line x1="735.768" y1="219.264" x2="755.544" y2="243.137" stroke="#F5C7A9" stroke-width="5" stroke-linecap="round"/>
<line x1="775.772" y1="263.585" x2="798.394" y2="284.78" stroke="#F5C7A9" stroke-width="5" stroke-linecap="round"/>
<line x1="819.653" y1="304.005" x2="842.082" y2="325.405" stroke="#F5C7A9" stroke-width="5" stroke-linecap="round"/>
<line x1="863.666" y1="348.115" x2="882.124" y2="373.021" stroke="#F5C7A9" stroke-width="5" stroke-linecap="round"/>
<line x1="895.55" y1="399.42" x2="901.383" y2="429.866" stroke="#F5C7A9" stroke-width="5" stroke-linecap="round"/>
<line x1="897.336" y1="461.408" x2="885.767" y2="490.169" stroke="#F5C7A9" stroke-width="5" stroke-linecap="round"/>
<line x1="869.692" y1="515.038" x2="850.206" y2="539.148" stroke="#F5C7A9" stroke-width="5" stroke-linecap="round"/>
<line x1="827.734" y1="562.171" x2="804.19" y2="582.338" stroke="#F5C7A9" stroke-width="5" stroke-linecap="round"/>
<line x1="779.124" y1="599.042" x2="751.069" y2="612.229" stroke="#F5C7A9" stroke-width="5" stroke-linecap="round"/>
<line x1="721.939" y1="620.124" x2="691.08" y2="623.08" stroke="#F5C7A9" stroke-width="5" stroke-linecap="round"/>
<line x1="661.114" y1="620.243" x2="630.912" y2="613.257" stroke="#F5C7A9" stroke-width="5" stroke-linecap="round"/>
<line x1="603.142" y1="602.925" x2="574.984" y2="589.958" stroke="#F5C7A9" stroke-width="5" stroke-linecap="round"/>
<line x1="549.234" y1="575.802" x2="522.551" y2="560.022" stroke="#F5C7A9" stroke-width="5" stroke-linecap="round"/>
<line x1="497.694" y1="544.545" x2="471.171" y2="528.497" stroke="#F5C7A9" stroke-width="5" stroke-linecap="round"/>
<line x1="445.987" y1="514.371" x2="417.512" y2="502.116" stroke="#F5C7A9" stroke-width="5" stroke-linecap="round"/>
<line x1="389.903" y1="495.734" x2="359.705" y2="502.742" stroke="#F5C7A9" stroke-width="5" stroke-linecap="round"/>
<line x1="339.645" y1="523.779" x2="321.474" y2="548.895" stroke="#F5C7A9" stroke-width="5" stroke-linecap="round"/>
<line x1="298.922" y1="570.037" x2="271.175" y2="583.86" stroke="#F5C7A9" stroke-width="5" stroke-linecap="round"/>
<line x1="239.835" y1="586.782" x2="209.573" y2="580.059" stroke="#F5C7A9" stroke-width="5" stroke-linecap="round"/>
<line x1="182.557" y1="566.24" x2="157.414" y2="548.106" stroke="#F5C7A9" stroke-width="5" stroke-linecap="round"/>
<line x1="135.782" y1="527.606" x2="115.713" y2="503.979" stroke="#F5C7A9" stroke-width="5" stroke-linecap="round"/>
<path fill-rule="evenodd" clip-rule="evenodd" d="M113.521 369.253C111.475 370.599 109.798 373.013 109.12 377.169C108.737 379.519 107.537 382.257 105.8 385.202C104.056 388.162 101.73 391.397 99.0303 394.751C93.6301 401.46 86.6855 408.705 79.7657 415.272C72.8456 421.84 65.9283 427.75 60.5738 431.786C57.9021 433.8 55.5909 435.369 53.8491 436.318C52.9876 436.788 52.2073 437.138 51.5627 437.296C51.2429 437.375 50.8867 437.425 50.5399 437.373C50.168 437.319 49.7634 437.137 49.5021 436.733C48.2297 434.765 45.582 429.926 44.3646 424.615C43.1549 419.338 43.294 413.254 48.1056 409.257C50.3974 407.353 53.7738 406.855 56.8033 406.807C59.1213 406.77 61.4178 407 63.0843 407.166C63.5736 407.215 64.0086 407.259 64.3739 407.289L64.4008 407C64.3993 406.998 64.3976 406.996 64.3958 406.994C64.3947 406.993 64.3935 406.992 64.3924 406.992C64.3912 406.991 64.3904 406.99 64.39 406.99C64.3894 406.99 64.3893 406.99 64.39 406.99C57.093 404.96 52.0313 405.317 48.6103 407.008C45.2202 408.684 43.2489 411.769 42.3323 415.651C41.4118 419.55 41.5792 424.178 42.4293 428.737C43.2779 433.288 44.7942 437.703 46.5101 441.151C46.6827 441.498 46.7332 441.869 46.6989 442.214C46.4563 444.659 47.2719 446.881 48.6793 449.105C49.8107 450.892 51.2708 452.602 52.8 454.394C53.1964 454.858 53.5975 455.328 53.9986 455.806C57.8154 460.354 61.5718 465.562 59.1751 472.672C58.2749 475.343 57.5733 477.039 56.991 478.145C56.4057 479.257 55.9067 479.84 55.3835 480.211C55.1739 480.359 54.9696 480.465 54.8372 480.533C54.8163 480.544 54.7971 480.554 54.78 480.563C54.6475 480.632 54.5848 480.672 54.5228 480.729C54.3884 480.852 54.1259 481.179 53.7193 482.286C51.6577 487.897 54.8233 493.052 57.0047 496.604L57.088 496.74C57.0898 496.743 57.0917 496.744 57.0948 496.745C57.0962 496.746 57.0972 496.746 57.0974 496.746C57.0976 496.746 57.097 496.746 57.0974 496.746L65.9219 493.277C65.9223 493.276 65.9228 493.276 65.9234 493.275C65.9281 493.269 65.9303 493.264 65.9309 493.261C69.1018 479.115 72.8951 467.952 77.0561 459.859C81.1973 451.805 85.7871 446.627 90.6443 444.726C93.1021 443.765 95.6036 443.654 98.0782 444.415C100.536 445.17 102.914 446.768 105.184 449.138C109.713 453.864 113.953 461.798 117.683 472.893C117.684 472.895 117.684 472.897 117.686 472.899C117.687 472.901 117.688 472.903 117.69 472.905C117.695 472.91 117.701 472.914 117.707 472.917C117.707 472.917 117.708 472.917 117.708 472.918L125.116 470.005L114.192 438.785C113.876 437.883 114.297 436.937 115.051 436.477C117.78 434.815 119.268 432.723 120.002 430.485C120.745 428.223 120.736 425.752 120.357 423.339C119.978 420.928 119.239 418.632 118.572 416.738C118.435 416.351 118.299 415.973 118.17 415.613C117.989 415.112 117.822 414.647 117.685 414.246C117.461 413.583 117.257 412.92 117.234 412.421C117.215 412.013 117.267 411.411 117.352 410.724C117.44 410.017 117.571 409.156 117.733 408.198C118.055 406.279 118.501 403.941 118.969 401.604C119.904 396.928 120.928 392.233 121.229 390.866C121.34 390.361 121.667 389.863 122.227 389.608C124.649 388.5 126.973 389.886 128.644 391.507C130.371 393.184 131.787 395.459 132.583 397.072C132.595 397.095 132.606 397.12 132.615 397.144C133.179 398.577 134.208 400.088 136.002 401.101C137.793 402.114 140.454 402.691 144.396 402.063C144.476 402.05 144.64 401.989 144.874 401.73C145.108 401.471 145.361 401.068 145.612 400.502C146.113 399.371 146.535 397.747 146.822 395.768C147.395 391.822 147.408 386.651 146.593 381.612C146.589 381.609 146.584 381.607 146.579 381.606C140.664 380.642 137.607 379.148 135.767 377.379C134.849 376.498 134.274 375.585 133.805 374.74C133.667 374.493 133.543 374.26 133.425 374.038C133.124 373.474 132.861 372.982 132.514 372.497C132.349 372.267 131.918 371.871 131.179 371.378C130.465 370.902 129.537 370.383 128.458 369.889C126.296 368.897 123.594 368.03 120.898 367.777C118.196 367.522 115.593 367.89 113.521 369.253ZM132.258 369.792C133.042 370.315 133.711 370.866 134.082 371.384C134.508 371.978 134.856 372.631 135.176 373.231C135.283 373.432 135.387 373.626 135.489 373.811C135.917 374.58 136.385 375.309 137.108 376.004C138.549 377.389 141.161 378.788 146.902 379.724C147.687 379.852 148.354 380.457 148.488 381.285C149.335 386.51 149.327 391.879 148.724 396.027C148.424 398.096 147.969 399.908 147.37 401.26C147.071 401.935 146.719 402.535 146.301 402.999C145.882 403.462 145.346 403.842 144.688 403.947C140.425 404.626 137.299 404.036 135.042 402.761C132.804 401.496 131.528 399.616 130.84 397.886C130.099 396.394 128.806 394.341 127.296 392.876C125.749 391.375 124.319 390.796 123.096 391.306C122.784 392.727 121.775 397.357 120.854 401.963C120.388 404.293 119.946 406.609 119.628 408.499C119.469 409.445 119.342 410.276 119.259 410.945C119.174 411.633 119.143 412.091 119.153 412.321C119.162 412.506 119.265 412.913 119.507 413.626C119.64 414.018 119.795 414.449 119.969 414.93C120.098 415.29 120.238 415.677 120.386 416.098C121.063 418.02 121.849 420.446 122.255 423.032C122.661 425.615 122.699 428.415 121.829 431.065C120.951 433.74 119.167 436.201 116.048 438.102C116.03 438.112 116.017 438.129 116.011 438.144C116.01 438.148 116.009 438.15 116.009 438.152L126.931 469.369C127.27 470.335 126.776 471.4 125.813 471.778L118.394 474.695C117.332 475.112 116.196 474.507 115.86 473.508C112.164 462.515 108.033 454.888 103.788 450.458C101.671 448.249 99.5608 446.871 97.4983 446.237C95.4522 445.608 93.3999 445.694 91.3384 446.5C87.1571 448.136 82.8464 452.782 78.7664 460.717C74.7061 468.614 70.9573 479.607 67.8065 493.663C67.67 494.272 67.2349 494.807 66.6244 495.047L57.7953 498.518C56.9181 498.863 55.929 498.529 55.4452 497.74C55.3851 497.643 55.3236 497.543 55.2607 497.441C53.1449 494.003 49.5305 488.132 51.9145 481.643C52.3477 480.464 52.7388 479.777 53.2243 479.332C53.4722 479.104 53.711 478.972 53.8906 478.878C53.922 478.861 53.9506 478.846 53.977 478.833C54.1076 478.765 54.1831 478.725 54.2743 478.661C54.4558 478.532 54.7801 478.238 55.2892 477.271C55.8012 476.298 56.4648 474.714 57.3532 472.078C59.3886 466.039 56.342 461.589 52.5188 457.033C52.144 456.587 51.7608 456.138 51.3754 455.687C49.836 453.884 48.2611 452.04 47.0503 450.128C45.5192 447.709 44.4867 445.061 44.7865 442.04C44.7887 442.018 44.7863 442.007 44.7854 442.004C42.9897 438.396 41.4193 433.814 40.5397 429.097C39.6614 424.386 39.4592 419.473 40.4615 415.228C41.4676 410.966 43.7116 407.305 47.763 405.302C51.7835 403.314 57.3894 403.058 64.9203 405.153C65.7819 405.393 66.4022 406.222 66.3154 407.15L66.2822 407.507C66.1918 408.475 65.3548 409.279 64.2957 409.197C63.8544 409.163 63.3463 409.112 62.7861 409.056C61.128 408.89 59.0133 408.679 56.8212 408.714C53.8658 408.762 51.0813 409.264 49.333 410.716C45.3793 414.001 45.0786 419.12 46.2385 424.18C47.3473 429.016 49.7328 433.489 50.98 435.473C51.0165 435.467 51.0606 435.458 51.1128 435.445C51.511 435.347 52.1159 435.093 52.9334 434.647C54.5496 433.767 56.7715 432.265 59.4183 430.27C64.7007 426.288 71.5617 420.428 78.4428 413.898C85.3242 407.367 92.2036 400.186 97.5322 393.566C100.197 390.256 102.462 387.1 104.144 384.247C105.834 381.38 106.897 378.883 107.223 376.877C107.966 372.323 109.87 369.373 112.467 367.665C115.037 365.975 118.135 365.599 121.092 365.878C124.054 366.156 126.968 367.098 129.274 368.156C130.43 368.686 131.449 369.252 132.258 369.792Z" fill="#F5C7A9"/>
<path d="M64.39 406.99C64.3904 406.99 64.3912 406.991 64.3924 406.992C64.3935 406.992 64.3947 406.993 64.3958 406.994C64.3976 406.996 64.3993 406.998 64.4008 407L64.3739 407.289C64.0086 407.259 63.5736 407.215 63.0843 407.166C61.4178 407 59.1213 406.77 56.8033 406.807C53.7738 406.855 50.3974 407.353 48.1056 409.257C43.294 413.254 43.1549 419.338 44.3646 424.615C45.582 429.926 48.2297 434.765 49.5021 436.733C49.7634 437.137 50.168 437.319 50.5399 437.373C50.8867 437.425 51.2429 437.375 51.5627 437.296C52.2073 437.138 52.9876 436.788 53.8491 436.318C55.5909 435.369 57.9021 433.8 60.5738 431.786C65.9283 427.75 72.8456 421.84 79.7657 415.272C86.6855 408.705 93.6302 401.46 99.0303 394.751C101.73 391.397 104.056 388.162 105.8 385.202C107.537 382.257 108.737 379.519 109.12 377.169C109.798 373.013 111.475 370.599 113.521 369.253C115.593 367.89 118.196 367.522 120.898 367.777C123.594 368.03 126.296 368.897 128.458 369.889C129.537 370.383 130.465 370.902 131.179 371.378C131.918 371.871 132.349 372.267 132.514 372.497C132.861 372.982 133.124 373.474 133.425 374.038C133.543 374.26 133.667 374.493 133.805 374.74C134.274 375.585 134.849 376.498 135.767 377.379C137.607 379.148 140.664 380.642 146.579 381.606C146.584 381.607 146.589 381.609 146.593 381.612C147.408 386.651 147.395 391.822 146.822 395.768C146.535 397.747 146.113 399.371 145.612 400.502C145.361 401.068 145.108 401.471 144.874 401.73C144.64 401.989 144.476 402.05 144.396 402.063C140.454 402.691 137.793 402.114 136.002 401.101C134.208 400.088 133.179 398.577 132.615 397.144C132.606 397.12 132.595 397.095 132.583 397.072C131.787 395.459 130.371 393.184 128.644 391.507C126.973 389.886 124.649 388.5 122.227 389.608C121.667 389.863 121.34 390.361 121.229 390.866C120.928 392.233 119.904 396.928 118.969 401.604C118.501 403.941 118.055 406.279 117.733 408.198C117.571 409.156 117.44 410.017 117.352 410.724C117.267 411.411 117.215 412.013 117.234 412.421C117.257 412.92 117.461 413.583 117.685 414.246C117.822 414.647 117.989 415.112 118.17 415.613C118.299 415.973 118.435 416.351 118.572 416.738C119.239 418.632 119.978 420.928 120.357 423.339C120.736 425.752 120.745 428.223 120.002 430.485C119.268 432.723 117.78 434.815 115.051 436.477C114.297 436.937 113.876 437.883 114.192 438.785L125.116 470.005L117.708 472.918C117.708 472.917 117.707 472.917 117.707 472.917C117.701 472.914 117.695 472.91 117.69 472.905C117.688 472.903 117.687 472.901 117.686 472.899C117.684 472.897 117.684 472.895 117.683 472.893C113.953 461.798 109.713 453.864 105.184 449.138C102.914 446.768 100.536 445.17 98.0782 444.415C95.6036 443.654 93.1021 443.765 90.6443 444.726C85.7871 446.627 81.1973 451.805 77.0561 459.859C72.8951 467.952 69.1018 479.115 65.9309 493.261C65.9303 493.264 65.9281 493.269 65.9234 493.275C65.9228 493.276 65.9223 493.276 65.9219 493.277L57.0974 496.746M64.39 406.99C64.3893 406.99 64.3894 406.99 64.39 406.99ZM64.39 406.99C57.093 404.96 52.0313 405.317 48.6103 407.008C45.2202 408.684 43.2489 411.769 42.3323 415.651C41.4118 419.55 41.5792 424.178 42.4293 428.737C43.2779 433.288 44.7942 437.703 46.5101 441.151C46.6827 441.498 46.7332 441.869 46.6989 442.214C46.4563 444.659 47.2719 446.881 48.6793 449.105C49.8107 450.892 51.2708 452.602 52.8 454.394C53.1964 454.858 53.5975 455.328 53.9986 455.806C57.8154 460.354 61.5718 465.562 59.1751 472.672C58.2749 475.343 57.5733 477.039 56.991 478.145C56.4057 479.257 55.9067 479.84 55.3835 480.211C55.1739 480.359 54.9696 480.465 54.8372 480.533C54.8163 480.544 54.7971 480.554 54.78 480.563C54.6475 480.632 54.5848 480.672 54.5228 480.729C54.3884 480.852 54.1259 481.179 53.7193 482.286C51.6577 487.897 54.8233 493.052 57.0047 496.604L57.088 496.74C57.0898 496.743 57.0917 496.744 57.0948 496.745C57.0962 496.746 57.0972 496.746 57.0974 496.746M57.0974 496.746C57.097 496.746 57.0976 496.746 57.0974 496.746ZM134.082 371.384C133.711 370.866 133.042 370.315 132.258 369.792C131.449 369.252 130.43 368.686 129.274 368.156C126.968 367.098 124.054 366.156 121.092 365.878C118.135 365.599 115.037 365.975 112.467 367.665C109.87 369.373 107.966 372.323 107.223 376.877C106.897 378.883 105.834 381.38 104.144 384.247C102.462 387.1 100.197 390.256 97.5322 393.566C92.2036 400.186 85.3242 407.367 78.4428 413.898C71.5617 420.428 64.7007 426.288 59.4183 430.27C56.7715 432.265 54.5496 433.767 52.9334 434.647C52.1159 435.093 51.511 435.347 51.1128 435.445C51.0606 435.458 51.0165 435.467 50.98 435.473C49.7328 433.489 47.3473 429.016 46.2385 424.18C45.0786 419.12 45.3793 414.001 49.333 410.716C51.0813 409.264 53.8658 408.762 56.8212 408.714C59.0133 408.679 61.128 408.89 62.7861 409.056C63.3463 409.112 63.8544 409.163 64.2957 409.197C65.3548 409.279 66.1918 408.475 66.2822 407.507L66.3154 407.15C66.4022 406.222 65.7819 405.393 64.9203 405.153C57.3894 403.058 51.7835 403.314 47.763 405.302C43.7116 407.305 41.4676 410.966 40.4615 415.228C39.4592 419.473 39.6614 424.386 40.5397 429.097C41.4193 433.814 42.9897 438.396 44.7854 442.004C44.7863 442.007 44.7887 442.018 44.7865 442.04C44.4867 445.061 45.5192 447.709 47.0503 450.128C48.2611 452.04 49.836 453.884 51.3754 455.687C51.7608 456.138 52.144 456.587 52.5188 457.033C56.342 461.589 59.3886 466.039 57.3532 472.078C56.4648 474.714 55.8012 476.298 55.2892 477.271C54.7801 478.238 54.4558 478.532 54.2743 478.661C54.1831 478.725 54.1076 478.765 53.977 478.833C53.9506 478.846 53.922 478.861 53.8906 478.878C53.711 478.972 53.4722 479.104 53.2243 479.332C52.7388 479.777 52.3477 480.464 51.9145 481.643C49.5305 488.132 53.1449 494.003 55.2607 497.441C55.3236 497.543 55.3851 497.643 55.4452 497.74C55.929 498.529 56.9181 498.863 57.7953 498.518L66.6244 495.047C67.2349 494.807 67.67 494.272 67.8065 493.663C70.9573 479.607 74.7061 468.614 78.7664 460.717C82.8464 452.782 87.1571 448.136 91.3384 446.5C93.3999 445.694 95.4522 445.608 97.4983 446.237C99.5608 446.871 101.671 448.249 103.788 450.458C108.033 454.888 112.164 462.515 115.86 473.508C116.196 474.507 117.332 475.112 118.394 474.695L125.813 471.778C126.776 471.4 127.27 470.335 126.931 469.369L116.009 438.152C116.009 438.15 116.01 438.148 116.011 438.144C116.017 438.129 116.03 438.112 116.048 438.102C119.167 436.201 120.951 433.74 121.829 431.065C122.699 428.415 122.661 425.615 122.255 423.032C121.849 420.446 121.063 418.02 120.386 416.098C120.238 415.677 120.098 415.29 119.969 414.93C119.795 414.449 119.64 414.018 119.507 413.626C119.265 412.913 119.162 412.506 119.153 412.321C119.143 412.091 119.174 411.633 119.259 410.945C119.342 410.276 119.469 409.445 119.628 408.499C119.946 406.609 120.388 404.293 120.854 401.963C121.775 397.357 122.784 392.727 123.096 391.306C124.319 390.796 125.749 391.375 127.296 392.876C128.806 394.341 130.099 396.394 130.84 397.886C131.528 399.616 132.804 401.496 135.042 402.761C137.299 404.036 140.425 404.626 144.688 403.947C145.346 403.842 145.882 403.462 146.301 402.999C146.719 402.535 147.071 401.935 147.37 401.26C147.969 399.908 148.424 398.096 148.724 396.027C149.327 391.879 149.335 386.51 148.488 381.285C148.354 380.457 147.687 379.852 146.902 379.724C141.161 378.788 138.549 377.389 137.108 376.004C136.385 375.309 135.917 374.58 135.489 373.811C135.387 373.626 135.283 373.432 135.176 373.231C134.856 372.631 134.508 371.978 134.082 371.384Z" stroke="#F5C7A9" stroke-width="3" stroke-linejoin="round"/>
<path d="M106.415 321.562C106.516 321.819 106.39 322.109 106.133 322.21C105.876 322.311 105.585 322.185 105.484 321.928C105.383 321.671 105.51 321.38 105.767 321.279C106.024 321.178 106.314 321.305 106.415 321.562Z" fill="#F5C7A9" stroke="#F5C7A9" stroke-width="3"/>
</svg>
